<svg width="11" height="13" viewBox="0 0 11 13" fill="none" xmlns="http://www.w3.org/2000/svg">
<g clip-path="url(#clip0_536_3374)">
<path d="M7.125 1.25C6.91875 1.25 6.75 1.41875 6.75 1.625C6.75 1.83125 6.91875 2 7.125 2H9.22031L6.76406 4.45391C6.04922 3.85859 5.12813 3.5 4.125 3.5C1.84688 3.5 0 5.34688 0 7.625C0 9.90312 1.84688 11.75 4.125 11.75C6.40312 11.75 8.25 9.90312 8.25 7.625C8.25 6.62187 7.89141 5.70078 7.29609 4.98594L9.75 2.52969V4.625C9.75 4.83125 9.91875 5 10.125 5C10.3313 5 10.5 4.83125 10.5 4.625V1.625C10.5 1.41875 10.3313 1.25 10.125 1.25H7.125ZM0.75 7.625C0.75 6.72989 1.10558 5.87145 1.73851 5.23851C2.37145 4.60558 3.22989 4.25 4.125 4.25C5.02011 4.25 5.87855 4.60558 6.51149 5.23851C7.14442 5.87145 7.5 6.72989 7.5 7.625C7.5 8.52011 7.14442 9.37855 6.51149 10.0115C5.87855 10.6444 5.02011 11 4.125 11C3.22989 11 2.37145 10.6444 1.73851 10.0115C1.10558 9.37855 0.75 8.52011 0.75 7.625Z" fill="#00B4C4"/>
</g>
<defs>
<clipPath id="clip0_536_3374">
<rect width="10.5" height="12" fill="white" transform="translate(0 0.5)"/>
</clipPath>
</defs>
</svg>
