<svg width="24" height="24" viewBox="0 0 24 24" fill="none" xmlns="http://www.w3.org/2000/svg">
<path d="M9.87793 7.51884C11.0495 6.49372 12.949 6.49372 14.1206 7.51884C15.2921 8.54397 15.2921 10.206 14.1206 11.2312C13.9167 11.4096 13.6907 11.5569 13.4504 11.6733C12.7047 12.0341 11.9993 12.6716 11.9993 13.5V14.25M20.999 12C20.999 16.9706 16.9696 21 11.999 21C7.02846 21 2.99902 16.9706 2.99902 12C2.99902 7.02944 7.02846 3 11.999 3C16.9696 3 20.999 7.02944 20.999 12ZM11.999 17.25H12.0065V17.2575H11.999V17.25Z" stroke="#6B7280" stroke-width="1.5" stroke-linecap="round" stroke-linejoin="round"/>
</svg>
