<svg width="9" height="13" viewBox="0 0 9 13" fill="none" xmlns="http://www.w3.org/2000/svg">
<g clip-path="url(#clip0_240_40373)">
<path d="M1.125 4.625C1.125 4.18179 1.2123 3.74292 1.38191 3.33344C1.55152 2.92397 1.80012 2.55191 2.11351 2.23851C2.42691 1.92512 2.79897 1.67652 3.20844 1.50691C3.61792 1.3373 4.05679 1.25 4.5 1.25C4.94321 1.25 5.38208 1.3373 5.79156 1.50691C6.20103 1.67652 6.57309 1.92512 6.88649 2.23851C7.19988 2.55191 7.44848 2.92397 7.61809 3.33344C7.7877 3.74292 7.875 4.18179 7.875 4.625C7.875 5.06821 7.7877 5.50708 7.61809 5.91656C7.44848 6.32603 7.19988 6.69809 6.88649 7.01149C6.57309 7.32488 6.20103 7.57348 5.79156 7.74309C5.38208 7.9127 4.94321 8 4.5 8C4.05679 8 3.61792 7.9127 3.20844 7.74309C2.79897 7.57348 2.42691 7.32488 2.11351 7.01149C1.80012 6.69809 1.55152 6.32603 1.38191 5.91656C1.2123 5.50708 1.125 5.06821 1.125 4.625ZM4.875 8.73359C6.97734 8.54375 8.625 6.77656 8.625 4.625C8.625 2.34688 6.77812 0.5 4.5 0.5C2.22188 0.5 0.375 2.34688 0.375 4.625C0.375 6.77656 2.02266 8.54375 4.125 8.73359V10.25H2.625C2.41875 10.25 2.25 10.4187 2.25 10.625C2.25 10.8313 2.41875 11 2.625 11H4.125V12.125C4.125 12.3313 4.29375 12.5 4.5 12.5C4.70625 12.5 4.875 12.3313 4.875 12.125V11H6.375C6.58125 11 6.75 10.8313 6.75 10.625C6.75 10.4187 6.58125 10.25 6.375 10.25H4.875V8.73359Z" fill="#F17EB8"/>
</g>
<defs>
<clipPath id="clip0_240_40373">
<rect width="9" height="12" fill="white" transform="translate(0 0.5)"/>
</clipPath>
</defs>
</svg>
